# xmcd
# 
# Track frame offsets:
#   150
#   16753
#   30898
#   44740
#   62348
#   79623
#   95732
#   113976
#   127267
#   145049
#   161743
#   186358
#   204227
#   220980
#   239289
# 
# Disc length: 3377 seconds
# 
# Revision: 0
# Processed by: cddbd v1.5.2PL0 Copyright (c) Steve Scherf et al.
# Submitted via: Synapstar 1.0 
# 
DISCID=cd0d2f0f
DTITLE=Various Artist - Unknown
DYEAR=1900
DGENRE=Country
TTITLE0=Keith Urban - Live to Love another day
TTITLE1=Aaron Tippin - Ready to Rock
TTITLE2=Gretchen Wilson - California Girls
TTITLE3=Jeff Bates - One Second Chance
TTITLE4=Rio Grande - Kill me Now
TTITLE5=Faith Hill - Sunshine and Summertinme
TTITLE6=Rocky Lynne - Do we Still
TTITLE7=Jack Ingram - Love You 
TTITLE8=Bomshel - Ain't my day to care
TTITLE9=Gary Nichols - Unbroken Ground
TTITLE10=Big and Rich - Eight of November
TTITLE11=Pat Green - Feels just like it should
TTITLE12=Sammy Kershaw - Tennesse Girl 
TTITLE13=Steve azar - You dont know a thing
TTITLE14=carolina rain - Get out of my way
EXTD=MediaType: Karaoke CD+G Producer: Chartbuster
EXTT0=
EXTT1=
EXTT2=
EXTT3=
EXTT4=
EXTT5=
EXTT6=
EXTT7=
EXTT8=
EXTT9=
EXTT10=
EXTT11=
EXTT12=
EXTT13=
EXTT14=
PLAYORDER=
